<svg width="28" height="26" viewBox="0 0 28 26" fill="none" xmlns="http://www.w3.org/2000/svg">
<path d="M19.4381 2.55463H8.39049C5.33978 2.55463 2.86668 4.87061 2.86668 7.72752V18.0733C2.86668 20.9302 5.33978 23.2462 8.39049 23.2462H19.4381C22.4888 23.2462 24.9619 20.9302 24.9619 18.0733V7.72752C24.9619 4.87061 22.4888 2.55463 19.4381 2.55463Z" stroke="#FBB87B" stroke-width="2.66667" stroke-linecap="round" stroke-linejoin="round"/>
<path d="M18.3333 12.2486C18.4697 13.1096 18.3126 13.989 17.8845 14.7616C17.4564 15.5343 16.7791 16.1608 15.9488 16.5521C15.1186 16.9435 14.1777 17.0797 13.26 16.9414C12.3423 16.8031 11.4946 16.3974 10.8373 15.7819C10.1801 15.1664 9.74683 14.3725 9.59916 13.5131C9.45149 12.6537 9.59695 11.7726 10.0148 10.9951C10.4327 10.2176 11.1018 9.58328 11.9268 9.18239C12.7518 8.78149 13.6908 8.63442 14.6103 8.7621C15.5481 8.89233 16.4164 9.30159 17.0868 9.92942C17.7572 10.5572 18.1943 11.3703 18.3333 12.2486Z" stroke="#FBB87B" stroke-width="2.66667" stroke-linecap="round" stroke-linejoin="round"/>
<path d="M19.9905 7.21024H20.0015" stroke="#FBB87B" stroke-width="2.66667" stroke-linecap="round" stroke-linejoin="round"/>
</svg>
