<svg width="39" height="37" viewBox="0 0 39 37" fill="none" xmlns="http://www.w3.org/2000/svg">
<g clip-path="url(#clip0)">
<path d="M33.2912 15.3653C33.2912 26.121 19.0235 35.3401 19.0235 35.3401C19.0235 35.3401 4.75589 26.121 4.75589 15.3653C4.75589 11.6977 6.25908 8.18027 8.93479 5.58688C11.6105 2.99348 15.2395 1.53653 19.0235 1.53653C22.8076 1.53653 26.4366 2.99348 29.1123 5.58688C31.788 8.18027 33.2912 11.6977 33.2912 15.3653Z" stroke="#0F4563" stroke-width="2.66667" stroke-linecap="round" stroke-linejoin="round"/>
<path d="M19.0235 19.9749C21.6501 19.9749 23.7794 17.9111 23.7794 15.3653C23.7794 12.8195 21.6501 10.7557 19.0235 10.7557C16.3969 10.7557 14.2676 12.8195 14.2676 15.3653C14.2676 17.9111 16.3969 19.9749 19.0235 19.9749Z" stroke="#0F4563" stroke-width="2.66667" stroke-linecap="round" stroke-linejoin="round"/>
</g>
<defs>
<clipPath id="clip0">
<rect width="38.0471" height="36.8767" fill="white"/>
</clipPath>
</defs>
</svg>
