<svg version="1.1" class="can-badge can-alert has-solid " viewBox="0 0 36 36" preserveAspectRatio="xMidYMid meet" xmlns="http://www.w3.org/2000/svg" xmlns:xlink="http://www.w3.org/1999/xlink" focusable="false" role="img" width="32" height="32" fill="currentColor"><path class="clr-i-outline clr-i-outline-path-1" d="M21.89,4H7.83A1.88,1.88,0,0,0,6,5.91V30.09A1.88,1.88,0,0,0,7.83,32H28.17A1.88,1.88,0,0,0,30,30.09V11.92Zm-.3,2.49,6,5.9h-6ZM8,30V6H20v8h8V30Z"/><path class="clr-i-outline--badged clr-i-outline-path-1--badged" d="M21.59,12.39V6.49l1.07,1a7.31,7.31,0,0,1,0-2.82L21.89,4H7.83A1.88,1.88,0,0,0,6,5.91V30.09A1.88,1.88,0,0,0,7.83,32H28.17A1.88,1.88,0,0,0,30,30.09V13.5a7.45,7.45,0,0,1-3.91-1.11ZM28,30H8V6H20v8h8Z" style="display:none"/><path class="clr-i-outline--alerted clr-i-outline-path-1--alerted" d="M28,15.4V30H8V6H20V8.25l2.25-3.9L21.89,4H7.83A1.88,1.88,0,0,0,6,5.91V30.09A1.88,1.88,0,0,0,7.83,32H28.17A1.88,1.88,0,0,0,30,30.09V15.4Z" style="display:none"/><path class="clr-i-outline--alerted clr-i-outline-path-2--alerted clr-i-alert" d="M26.85,1.14,21.13,11A1.28,1.28,0,0,0,22.23,13H33.68A1.28,1.28,0,0,0,34.78,11L29.06,1.14A1.28,1.28,0,0,0,26.85,1.14Z" style="display:none"/><path class="clr-i-solid clr-i-solid-path-1" d="M21.89,4H7.83A1.88,1.88,0,0,0,6,5.91V30.09A1.88,1.88,0,0,0,7.83,32H28.17A1.88,1.88,0,0,0,30,30.09V11.92ZM21,13V5.84L28.3,13Z" style="display:none"/><path class="clr-i-solid--badged clr-i-solid-path-1--badged" d="M27.25,13H21V5.84l1.64,1.6a7.25,7.25,0,0,1,0-2.74L21.89,4H7.83A1.88,1.88,0,0,0,6,5.91V30.09A1.88,1.88,0,0,0,7.83,32H28.17A1.88,1.88,0,0,0,30,30.09V13.5A7.47,7.47,0,0,1,27.25,13Z" style="display:none"/><path class="clr-i-solid--alerted clr-i-solid-path-1--alerted" d="M22.2,15.4c-2,0-3.7-1.6-3.7-3.6c0-0.7,0.2-1.3,0.5-1.9l3.2-5.5L21.9,4H7.8C6.8,4,6,4.9,6,5.9v24.2c0,1,0.8,1.9,1.8,1.9h20.3c1,0,1.8-0.9,1.8-1.9V15.4H22.2z" style="display:none"/><path class="clr-i-solid--alerted clr-i-solid-path-2--alerted clr-i-alert" d="M26.9,1.1L21.1,11c-0.4,0.6-0.2,1.4,0.3,1.8c0.2,0.2,0.5,0.2,0.8,0.2h11.5c0.7,0,1.3-0.5,1.3-1.2c0-0.3-0.1-0.5-0.2-0.8l-5.7-9.9c-0.4-0.6-1.1-0.8-1.8-0.5C27.1,0.8,27,1,26.9,1.1z" style="display:none"/><circle class="clr-i-outline--badged clr-i-outline-path-2--badged clr-i-badge" cx="30" cy="6" r="5" style="display:none"/><circle class="clr-i-solid--badged clr-i-solid-path-2--badged clr-i-badge" cx="30" cy="6" r="5" style="display:none"/></svg>